<svg width="14" height="16" viewBox="0 0 14 16" fill="none" xmlns="http://www.w3.org/2000/svg">
<path id="bookmark" d="M6.99997 14.0477L3.03075 15.7515C2.4282 16.0092 1.85577 15.9598 1.31347 15.6034C0.771158 15.247 0.5 14.7457 0.5 14.0996V1.89388C0.5 1.38875 0.675 0.961182 1.025 0.611182C1.375 0.261182 1.80257 0.0861816 2.3077 0.0861816H11.6922C12.1974 0.0861816 12.625 0.261182 12.975 0.611182C13.325 0.961182 13.5 1.38875 13.5 1.89388V14.0996C13.5 14.7457 13.2288 15.247 12.6865 15.6034C12.1442 15.9598 11.5717 16.0092 10.9692 15.7515L6.99997 14.0477ZM6.99997 12.3862L11.5672 14.3535C11.6698 14.3983 11.7676 14.3887 11.8605 14.3246C11.9535 14.2605 12 14.1739 12 14.065V1.89388C12 1.81695 11.9679 1.74642 11.9038 1.68231C11.8397 1.61821 11.7692 1.58616 11.6922 1.58616H2.3077C2.23077 1.58616 2.16024 1.61821 2.09613 1.68231C2.03202 1.74642 1.99997 1.81695 1.99997 1.89388V14.065C1.99997 14.1739 2.04645 14.2605 2.1394 14.3246C2.23237 14.3887 2.33013 14.3983 2.4327 14.3535L6.99997 12.3862Z" fill="#8D8D8D"/>
</svg>
