<svg width="24" height="25" viewBox="0 0 24 25" fill="none" xmlns="http://www.w3.org/2000/svg">
<path id="edit_square" d="M2.4 24.03C1.74 24.03 1.175 23.795 0.705 23.325C0.235 22.855 0 22.29 0 21.63V4.83C0 4.17 0.235 3.605 0.705 3.135C1.175 2.665 1.74 2.43 2.4 2.43H13.11L10.71 4.83H2.4V21.63H19.2V13.29L21.6 10.89V21.63C21.6 22.29 21.365 22.855 20.895 23.325C20.425 23.795 19.86 24.03 19.2 24.03H2.4ZM7.2 16.83V11.73L18.21 0.72C18.45 0.48 18.72 0.3 19.02 0.18C19.32 0.06 19.62 0 19.92 0C20.24 0 20.545 0.06 20.835 0.18C21.125 0.3 21.39 0.48 21.63 0.72L23.31 2.43C23.53 2.67 23.7 2.935 23.82 3.225C23.94 3.515 24 3.81 24 4.11C24 4.41 23.945 4.705 23.835 4.995C23.725 5.285 23.55 5.55 23.31 5.79L12.3 16.83H7.2ZM9.6 14.43H11.28L18.24 7.47L17.4 6.63L16.53 5.79L9.6 12.72V14.43Z" fill="white"/>
</svg>
