<svg width="17" height="18" viewBox="0 0 17 18" fill="none" xmlns="http://www.w3.org/2000/svg">
<path id="home" d="M0.5 15.75V6.75C0.5 6.43333 0.570833 6.13333 0.7125 5.85C0.854167 5.56667 1.05 5.33333 1.3 5.15L7.3 0.65C7.65 0.383333 8.05 0.25 8.5 0.25C8.95 0.25 9.35 0.383333 9.7 0.65L15.7 5.15C15.95 5.33333 16.1458 5.56667 16.2875 5.85C16.4292 6.13333 16.5 6.43333 16.5 6.75V15.75C16.5 16.3 16.3042 16.7708 15.9125 17.1625C15.5208 17.5542 15.05 17.75 14.5 17.75H11.5C11.2167 17.75 10.9792 17.6542 10.7875 17.4625C10.5958 17.2708 10.5 17.0333 10.5 16.75V11.75C10.5 11.4667 10.4042 11.2292 10.2125 11.0375C10.0208 10.8458 9.78333 10.75 9.5 10.75H7.5C7.21667 10.75 6.97917 10.8458 6.7875 11.0375C6.59583 11.2292 6.5 11.4667 6.5 11.75V16.75C6.5 17.0333 6.40417 17.2708 6.2125 17.4625C6.02083 17.6542 5.78333 17.75 5.5 17.75H2.5C1.95 17.75 1.47917 17.5542 1.0875 17.1625C0.695833 16.7708 0.5 16.3 0.5 15.75Z" fill="#A4634D"/>
</svg>
