<svg width="17" height="18" viewBox="0 0 17 18" fill="none" xmlns="http://www.w3.org/2000/svg">
<path id="home" d="M2.5 15.75H5.5V10.75C5.5 10.4667 5.59583 10.2292 5.7875 10.0375C5.97917 9.84583 6.21667 9.75 6.5 9.75H10.5C10.7833 9.75 11.0208 9.84583 11.2125 10.0375C11.4042 10.2292 11.5 10.4667 11.5 10.75V15.75H14.5V6.75L8.5 2.25L2.5 6.75V15.75ZM0.5 15.75V6.75C0.5 6.43333 0.570833 6.13333 0.7125 5.85C0.854167 5.56667 1.05 5.33333 1.3 5.15L7.3 0.65C7.65 0.383333 8.05 0.25 8.5 0.25C8.95 0.25 9.35 0.383333 9.7 0.65L15.7 5.15C15.95 5.33333 16.1458 5.56667 16.2875 5.85C16.4292 6.13333 16.5 6.43333 16.5 6.75V15.75C16.5 16.3 16.3042 16.7708 15.9125 17.1625C15.5208 17.5542 15.05 17.75 14.5 17.75H10.5C10.2167 17.75 9.97917 17.6542 9.7875 17.4625C9.59583 17.2708 9.5 17.0333 9.5 16.75V11.75H7.5V16.75C7.5 17.0333 7.40417 17.2708 7.2125 17.4625C7.02083 17.6542 6.78333 17.75 6.5 17.75H2.5C1.95 17.75 1.47917 17.5542 1.0875 17.1625C0.695833 16.7708 0.5 16.3 0.5 15.75Z" fill="#8D8D8D"/>
</svg>
