<svg width="81" height="81" viewBox="0 0 81 81" fill="none" xmlns="http://www.w3.org/2000/svg">
<g id="Group 36714">
<circle id="Ellipse 64" cx="40.5" cy="40.5" r="40.5" fill="white"/>
<g id="Logo Shapes 28">
<g id="Group">
<path id="Vector" d="M65.1371 44.3781C64.9405 50.5847 62.7631 56.5672 58.9212 61.456C55.0793 66.3448 49.7731 69.8851 43.7739 71.5624C37.7746 73.2398 31.395 72.9668 25.5621 70.783C19.7292 68.5992 14.7472 64.6185 11.34 59.4196L11.3485 59.4103L11.3855 59.3919C11.3948 59.3919 11.3947 59.3826 11.404 59.3826C11.4133 59.3642 11.4225 59.3642 11.4318 59.355L20.762 53.2799L60.3801 27.4696V27.4788C60.4812 27.6257 60.573 27.7726 60.6656 27.9287C60.8871 28.2686 61.09 28.6208 61.2922 28.9768C61.4858 29.3075 61.6702 29.6382 61.8454 29.9765C62.1132 30.4725 62.3624 30.987 62.5831 31.5022C62.6942 31.7313 62.7958 31.962 62.8878 32.1943C63.0352 32.5342 63.1641 32.8648 63.2929 33.214C63.3948 33.4623 63.4773 33.7192 63.5607 33.9768C63.6378 34.1698 63.6988 34.3613 63.7636 34.5643C64.0121 35.3456 64.2335 36.1361 64.4179 36.9443C64.9831 39.3802 65.225 41.8795 65.1371 44.3781Z" fill="#A4634D"/>
<g id="Group_2" style="mix-blend-mode:multiply" opacity="0.16">
<g id="Vector_2" style="mix-blend-mode:multiply">
<path d="M64.4179 36.944L11.34 59.4192L60.3801 27.4708C62.2783 30.3654 63.6456 33.5729 64.4179 36.944Z" fill="black"/>
</g>
</g>
<path id="Vector_3" d="M69.8118 21.3331L69.8026 21.3424C69.7933 21.3424 69.7841 21.3608 69.7663 21.3608C69.7551 21.3777 69.7389 21.3906 69.72 21.3977L60.3836 27.4804L20.7647 53.2815C20.6637 53.1277 20.5711 52.9785 20.4792 52.8201C16.4312 46.4286 15.0444 38.7155 16.6135 31.3207C16.8198 30.344 17.0753 29.3783 17.3789 28.427C17.3861 28.4121 17.3923 28.3966 17.3974 28.381C17.4055 28.3367 17.4179 28.2934 17.4345 28.2518C19.1237 23.0774 22.231 18.4769 26.4055 14.9699C30.5799 11.4628 35.6553 9.18897 41.0581 8.40512C46.461 7.62128 51.9761 8.35868 56.9807 10.534C61.9851 12.7094 66.2796 16.236 69.379 20.7156C69.3919 20.7303 69.404 20.7457 69.4152 20.7617C69.5541 20.9471 69.6845 21.1401 69.8118 21.3331Z" fill="#A4634D"/>
<g id="Group_3" style="mix-blend-mode:multiply" opacity="0.25">
<g id="Vector_4" style="mix-blend-mode:multiply">
<path d="M60.6653 27.9299C58.0557 29.7678 55.0225 31.8518 51.7494 34.0588C50.0519 35.1984 48.3111 36.3926 46.5133 37.5692C44.7154 38.7457 42.8983 39.9484 41.0827 41.1434C39.2478 42.3285 37.413 43.505 35.6043 44.6716C33.7972 45.8204 32.0086 46.9509 30.2849 48.0436C26.8181 50.2214 23.5719 52.2246 20.7602 53.9064C17.967 55.6058 15.5905 56.9569 13.9469 57.9305C12.4994 58.7764 11.5866 59.2816 11.3837 59.3916C11.3946 59.3746 11.4109 59.3616 11.43 59.3546L60.3783 27.4708C60.4809 27.6177 60.5727 27.7738 60.6653 27.9299Z" fill="black"/>
</g>
</g>
<g id="Group_4" style="mix-blend-mode:screen" opacity="0.7">
<g id="Vector_5" style="mix-blend-mode:screen">
<path d="M69.7656 21.361C69.7545 21.3779 69.7383 21.3908 69.7194 21.3979L20.7641 53.2818C20.663 53.128 20.5705 52.9788 20.4786 52.8204C23.0881 50.9917 26.1306 48.8985 29.4029 46.6915C31.1005 45.5519 32.8513 44.3761 34.6398 43.1811C36.4284 42.0053 38.254 40.8018 40.0704 39.6068C41.9053 38.4218 43.7401 37.2453 45.5488 36.0787C47.3574 34.9121 49.1446 33.8002 50.8683 32.7067C54.3259 30.5289 57.5812 28.5257 60.3922 26.8347C63.1861 25.1352 65.5619 23.7933 67.2062 22.8198C68.6499 21.9762 69.5627 21.471 69.7656 21.361Z" fill="#A4634D"/>
</g>
</g>
<g id="Group_5" style="mix-blend-mode:screen" opacity="0.25">
<g id="Vector_6" style="mix-blend-mode:screen">
<path d="M61.4678 43.3663C61.4742 45.1514 61.2888 46.932 60.9145 48.6777C60.2321 51.9608 58.9059 55.0773 57.0118 57.8482C55.1178 60.6191 52.6933 62.99 49.8775 64.8247C47.0617 66.6594 43.91 67.9218 40.6033 68.5394C37.2968 69.157 33.9002 69.1178 30.609 68.4238C25.1988 67.3161 20.3002 64.4767 16.6591 60.3379L16.9268 60.1633L61.4678 43.3663Z" fill="#A4634D"/>
</g>
</g>
<g id="Group_6" style="mix-blend-mode:screen" opacity="0.25">
<g id="Vector_7" style="mix-blend-mode:screen">
<path d="M64.4919 20.4144L63.9665 20.7543L20.1539 32.4145C20.1724 32.3045 20.1902 32.1838 20.218 32.0746C20.9026 28.7908 22.231 25.6741 24.127 22.9032C26.0229 20.1322 28.4491 17.7615 31.2663 15.927C34.0836 14.0924 37.2365 12.8302 40.5442 12.2127C43.852 11.5952 47.2495 11.6346 50.5421 12.3285C55.9504 13.4406 60.8477 16.2792 64.4919 20.4144Z" fill="#A4634D"/>
</g>
</g>
<g id="Group_7" style="mix-blend-mode:multiply" opacity="0.16">
<g id="Vector_8" style="mix-blend-mode:multiply">
<path d="M65.1371 44.3779C64.9405 50.5846 62.7631 56.567 58.9212 61.4558C55.0793 66.3446 49.7731 69.8849 43.7739 71.5623C37.7746 73.2396 31.395 72.9666 25.5621 70.7829C19.7292 68.5991 14.7472 64.6184 11.34 59.4194C12.2725 60.6435 13.2793 61.8096 14.3546 62.9113C16.5157 65.0577 18.9823 66.8751 21.6748 68.305C24.3415 69.7226 27.2121 70.7205 30.1849 71.2633L32.4164 71.5755C33.1625 71.7047 33.9187 71.6678 34.6656 71.7224L35.7906 71.7685L36.9156 71.7139C37.6619 71.6972 38.4066 71.6387 39.1463 71.5386L41.3685 71.1987L43.5445 70.6481C44.2821 70.4943 44.9735 70.179 45.6833 69.956C46.3947 69.7213 47.0881 69.4358 47.7582 69.1017C49.1226 68.484 50.4381 67.7642 51.6934 66.9485L53.5368 65.6528C54.1178 65.1845 54.6803 64.6885 55.252 64.2009C55.8169 63.7056 56.3554 63.1812 56.8655 62.6299L57.6587 61.8217L58.3593 60.9489C59.3175 59.7831 60.1922 58.5518 60.9773 57.2639L62.0468 55.2607C62.4249 54.5993 62.6463 53.8826 62.9596 53.1936C63.107 52.8445 63.2682 52.5015 63.4025 52.1463L63.7435 51.0435C63.9557 50.3084 64.2412 49.564 64.3979 48.8381C64.7372 47.3681 64.9841 45.8785 65.1371 44.3779Z" fill="black"/>
</g>
</g>
<g id="Group_8" style="mix-blend-mode:screen" opacity="0.7">
<g id="Vector_9" style="mix-blend-mode:screen">
<path d="M69.3756 20.7168C69.2985 20.6253 69.182 20.4861 69.0253 20.3039C68.7391 19.9271 68.2537 19.4126 67.6696 18.7421C65.9972 16.9626 64.1221 15.3837 62.0824 14.0374C60.7379 13.1408 59.3228 12.3541 57.8509 11.6851C56.217 10.9547 54.5236 10.3643 52.7892 9.92026C52.3463 9.80107 51.8486 9.70956 51.3779 9.59883C50.9451 9.49809 50.4474 9.46118 49.989 9.3789C49.5099 9.31431 49.0392 9.24971 48.56 9.17666C48.0716 9.12129 47.5924 9.11206 47.1032 9.07514C46.6148 9.05669 46.1264 9.01133 45.6372 8.99825L44.1534 9.05285C43.1648 9.08071 42.1792 9.17292 41.2028 9.32892C40.7123 9.37959 40.2256 9.46231 39.746 9.57653L38.2892 9.88413C37.3393 10.1225 36.3995 10.4539 35.4682 10.7385C34.5739 11.123 33.6518 11.4367 32.7946 11.8597C32.3702 12.0711 31.9458 12.2911 31.5222 12.5025L30.8856 12.824L30.2961 13.1916C29.5122 13.6976 28.7097 14.1382 27.9998 14.6988C26.6102 15.7014 25.3115 16.8235 24.1187 18.0523C23.5585 18.5962 23.0319 19.1733 22.5415 19.7802C22.0716 20.3677 21.6202 20.9375 21.1958 21.472C20.81 22.051 20.4489 22.584 20.0986 23.0984C19.4258 24.1189 18.9736 25.0924 18.5222 25.8668C17.8856 27.3002 17.4898 28.1914 17.3972 28.3844C17.392 28.4002 17.3858 28.4157 17.3787 28.4306C17.3787 28.4306 17.3972 28.366 17.4342 28.2552C19.1234 23.0809 22.2308 18.4805 26.4052 14.9734C30.5797 11.4664 35.655 9.19251 41.0579 8.40866C46.4607 7.62482 51.9759 8.36222 56.9804 10.5376C61.9849 12.7129 66.2793 16.2396 69.3787 20.7192L69.3756 20.7168Z" fill="#A4634D"/>
</g>
</g>
</g>
</g>
</g>
</svg>
