<svg width="24" height="24" viewBox="0 0 24 24" fill="none" xmlns="http://www.w3.org/2000/svg">
<path id="news" d="M2.66667 24C1.93333 24 1.30556 23.7389 0.783333 23.2167C0.261111 22.6944 0 22.0667 0 21.3333V2.66667C0 1.93333 0.261111 1.30556 0.783333 0.783333C1.30556 0.261111 1.93333 0 2.66667 0H17.3333L24 6.66667V21.3333C24 22.0667 23.7389 22.6944 23.2167 23.2167C22.6944 23.7389 22.0667 24 21.3333 24H2.66667ZM2.66667 21.3333H21.3333V8H16V2.66667H2.66667V21.3333ZM5.33333 18.6667H18.6667V16H5.33333V18.6667ZM5.33333 8H12V5.33333H5.33333V8ZM5.33333 13.3333H18.6667V10.6667H5.33333V13.3333Z" fill="#A4634D"/>
</svg>
