<svg width="17" height="20" viewBox="0 0 17 20" fill="none" xmlns="http://www.w3.org/2000/svg">
<path id="notifications" d="M1.5 17C1.21667 17 0.979167 16.9042 0.7875 16.7125C0.595833 16.5208 0.5 16.2833 0.5 16C0.5 15.7167 0.595833 15.4792 0.7875 15.2875C0.979167 15.0958 1.21667 15 1.5 15H2.5V8C2.5 6.61667 2.91667 5.3875 3.75 4.3125C4.58333 3.2375 5.66667 2.53333 7 2.2V1.5C7 1.08333 7.14583 0.729167 7.4375 0.4375C7.72917 0.145833 8.08333 0 8.5 0C8.91667 0 9.27083 0.145833 9.5625 0.4375C9.85417 0.729167 10 1.08333 10 1.5V2.2C11.3333 2.53333 12.4167 3.2375 13.25 4.3125C14.0833 5.3875 14.5 6.61667 14.5 8V15H15.5C15.7833 15 16.0208 15.0958 16.2125 15.2875C16.4042 15.4792 16.5 15.7167 16.5 16C16.5 16.2833 16.4042 16.5208 16.2125 16.7125C16.0208 16.9042 15.7833 17 15.5 17H1.5ZM8.5 20C7.95 20 7.47917 19.8042 7.0875 19.4125C6.69583 19.0208 6.5 18.55 6.5 18H10.5C10.5 18.55 10.3042 19.0208 9.9125 19.4125C9.52083 19.8042 9.05 20 8.5 20Z" fill="#A4634D"/>
</svg>
