<svg width="15" height="20" viewBox="0 0 15 20" fill="none" xmlns="http://www.w3.org/2000/svg">
<path id="notifications" d="M0.75 16.7885C0.5375 16.7885 0.359375 16.7166 0.215625 16.5728C0.071875 16.429 0 16.2508 0 16.0382C0 15.8256 0.071875 15.6475 0.215625 15.5039C0.359375 15.3603 0.5375 15.2886 0.75 15.2886H1.8077V7.82698C1.8077 6.48211 2.22276 5.29302 3.05287 4.25968C3.88301 3.22635 4.94872 2.56546 6.25 2.27701V1.65393C6.25 1.30671 6.37142 1.01158 6.61425 0.768532C6.85708 0.525465 7.15195 0.403931 7.49885 0.403931C7.84575 0.403931 8.14099 0.525465 8.38457 0.768532C8.62816 1.01158 8.74995 1.30671 8.74995 1.65393V2.27701C10.0512 2.56546 11.1169 3.22635 11.9471 4.25968C12.7772 5.29302 13.1922 6.48211 13.1922 7.82698V15.2886H14.25C14.4625 15.2886 14.6406 15.3605 14.7843 15.5043C14.9281 15.6481 15 15.8263 15 16.0389C15 16.2515 14.9281 16.4295 14.7843 16.5731C14.6406 16.7167 14.4625 16.7885 14.25 16.7885H0.75ZM7.49828 19.5962C7.00069 19.5962 6.5753 19.4192 6.2221 19.0652C5.8689 18.7112 5.6923 18.2856 5.6923 17.7885H9.30765C9.30765 18.2872 9.13048 18.7132 8.77615 19.0664C8.42182 19.4196 7.99586 19.5962 7.49828 19.5962ZM3.30765 15.2886H11.6923V7.82698C11.6923 6.66928 11.283 5.68114 10.4644 4.86256C9.64582 4.04396 8.65767 3.63466 7.49997 3.63466C6.34227 3.63466 5.35413 4.04396 4.53555 4.86256C3.71695 5.68114 3.30765 6.66928 3.30765 7.82698V15.2886Z" fill="#8D8D8D"/>
</svg>
