<svg width="24" height="24" viewBox="0 0 24 24" fill="none" xmlns="http://www.w3.org/2000/svg">
<path fill-rule="evenodd" clip-rule="evenodd" d="M9.98967 0C4.47253 0 0 4.47271 0 9.99009C0 15.5075 4.47253 19.9802 9.98967 19.9802C12.4089 19.9802 14.6273 19.1202 16.3558 17.6892L22.39 23.7236L22.4055 23.7388C22.775 24.092 23.361 24.087 23.7243 23.7236C24.0928 23.3552 24.0928 22.7578 23.7243 22.3893L17.6899 16.3547C19.12 14.6264 19.9793 12.4086 19.9793 9.99009C19.979 4.47283 15.5067 0.000351181 9.98967 0ZM9.98935 1.8881C14.4643 1.88838 18.0918 5.51609 18.0921 9.99119C18.0921 14.4663 14.4644 18.0942 9.98941 18.0942C5.51442 18.0942 1.88672 14.4663 1.88672 9.99113C1.88672 5.51595 5.51442 1.8881 9.98935 1.8881Z" fill="#141E28"/>
</svg>
