<svg width="18" height="18" viewBox="0 0 18 18" fill="none" xmlns="http://www.w3.org/2000/svg">
<g id="thumb_up">
<mask id="mask0_110_720" style="mask-type:alpha" maskUnits="userSpaceOnUse" x="0" y="0" width="18" height="18">
<rect id="Bounding box" width="18" height="18" fill="#D9D9D9"/>
</mask>
<g mask="url(#mask0_110_720)">
<path id="thumb_up_2" d="M5.25 15.7492V5.99922L9.75 1.53672C9.9375 1.34922 10.1594 1.23984 10.4156 1.20859C10.6719 1.17734 10.9187 1.22422 11.1562 1.34922C11.3938 1.47422 11.5687 1.64922 11.6812 1.87422C11.7937 2.09922 11.8188 2.33047 11.7563 2.56797L10.9125 5.99922H15.75C16.15 5.99922 16.5 6.14922 16.8 6.44922C17.1 6.74922 17.25 7.09922 17.25 7.49922V8.99922C17.25 9.08672 17.2375 9.18047 17.2125 9.28047C17.1875 9.38047 17.1625 9.47422 17.1375 9.56172L14.8875 14.8492C14.775 15.0992 14.5875 15.3117 14.325 15.4867C14.0625 15.6617 13.7875 15.7492 13.5 15.7492H5.25ZM6.75 6.63672V14.2492H13.5L15.75 8.99922V7.49922H9L10.0125 3.37422L6.75 6.63672ZM3 15.7492C2.5875 15.7492 2.23438 15.6023 1.94063 15.3086C1.64688 15.0148 1.5 14.6617 1.5 14.2492V7.49922C1.5 7.08672 1.64688 6.73359 1.94063 6.43984C2.23438 6.14609 2.5875 5.99922 3 5.99922H5.25V7.49922H3V14.2492H5.25V15.7492H3Z" fill="#1C1B1F"/>
</g>
</g>
</svg>
