<svg width="24" height="17" viewBox="0 0 24 17" fill="none" xmlns="http://www.w3.org/2000/svg">
<path id="visibility" d="M12 13.0909C13.3636 13.0909 14.5227 12.6136 15.4773 11.6591C16.4318 10.7045 16.9091 9.54545 16.9091 8.18182C16.9091 6.81818 16.4318 5.65909 15.4773 4.70455C14.5227 3.75 13.3636 3.27273 12 3.27273C10.6364 3.27273 9.47727 3.75 8.52273 4.70455C7.56818 5.65909 7.09091 6.81818 7.09091 8.18182C7.09091 9.54545 7.56818 10.7045 8.52273 11.6591C9.47727 12.6136 10.6364 13.0909 12 13.0909ZM12 11.1273C11.1818 11.1273 10.4864 10.8409 9.91364 10.2682C9.34091 9.69546 9.05455 9 9.05455 8.18182C9.05455 7.36364 9.34091 6.66818 9.91364 6.09545C10.4864 5.52273 11.1818 5.23636 12 5.23636C12.8182 5.23636 13.5136 5.52273 14.0864 6.09545C14.6591 6.66818 14.9455 7.36364 14.9455 8.18182C14.9455 9 14.6591 9.69546 14.0864 10.2682C13.5136 10.8409 12.8182 11.1273 12 11.1273ZM12 16.3636C9.34545 16.3636 6.92727 15.6227 4.74545 14.1409C2.56364 12.6591 0.981818 10.6727 0 8.18182C0.981818 5.69091 2.56364 3.70455 4.74545 2.22273C6.92727 0.740909 9.34545 0 12 0C14.6545 0 17.0727 0.740909 19.2545 2.22273C21.4364 3.70455 23.0182 5.69091 24 8.18182C23.0182 10.6727 21.4364 12.6591 19.2545 14.1409C17.0727 15.6227 14.6545 16.3636 12 16.3636ZM12 14.1818C14.0545 14.1818 15.9409 13.6409 17.6591 12.5591C19.3773 11.4773 20.6909 10.0182 21.6 8.18182C20.6909 6.34545 19.3773 4.88636 17.6591 3.80455C15.9409 2.72273 14.0545 2.18182 12 2.18182C9.94545 2.18182 8.05909 2.72273 6.34091 3.80455C4.62273 4.88636 3.30909 6.34545 2.4 8.18182C3.30909 10.0182 4.62273 11.4773 6.34091 12.5591C8.05909 13.6409 9.94545 14.1818 12 14.1818Z" fill="#A4634D"/>
</svg>
